# xmcd
#
# Track frame offsets: 
#        150
#        10611
#        33809
#        53447
#        66954
#        90739
#        115208
#        128103
#        137417
#        150227
#        174811
#        220793
#        237869
#        263268
#        283541
#
# Disc length: 4017 seconds
#
# Revision: 4
# Processed by: cddbd v1.5.2PL0 Copyright (c) Steve Scherf et al.
# Submitted via: ExactAudioCopy v1.3
#
DISCID=ad0faf0f
DTITLE=John Lee Hooker - Gold [Universal 2007] [2]
DYEAR=2007
DGENRE=Blues
TTITLE0=Big Legs, Tight Skirt
TTITLE1=It Serves You Right To Suffer
TTITLE2=Shake It Baby
TTITLE3=One Bourbon, One Scotch, One Beer
TTITLE4=The Waterfront
TTITLE5=I'm Bad Like Jesse James
TTITLE6=The Motor City Is Burning
TTITLE7=Think Twice Before You Go
TTITLE8=Back Biters and Syndicators
TTITLE9=Burning Hell [with Canned Heat]
TTITLE10=Never Get Out Of These Blues Alive [with Van Morrison]
TTITLE11=Red House
TTITLE12=The Healer [with Santana]
TTITLE13=I'm In The Mood [with Bonnie Raitt
TTITLE14=Tupelo
EXTD=
EXTT0=
EXTT1=
EXTT2=
EXTT3=
EXTT4=
EXTT5=
EXTT6=
EXTT7=
EXTT8=
EXTT9=
EXTT10=
EXTT11=
EXTT12=
EXTT13=
EXTT14=
PLAYORDER=
